<svg width="38" height="27" viewBox="0 0 38 27" fill="none" xmlns="http://www.w3.org/2000/svg">
<path d="M36.2464 4.91333C36.052 4.14588 35.6561 3.44271 35.0988 2.87485C34.5414 2.30699 33.8423 1.89454 33.072 1.67917C30.2576 1 19 1 19 1C19 1 7.7424 1 4.928 1.74386C4.15772 1.95922 3.45859 2.37167 2.90122 2.93953C2.34386 3.50739 1.94799 4.21056 1.75362 4.97801C1.23855 7.8007 0.986595 10.6641 1.00094 13.5323C0.982575 16.4221 1.23454 19.3074 1.75362 22.1514C1.96791 22.895 2.37264 23.5714 2.92871 24.1153C3.48478 24.6591 4.17339 25.0521 4.928 25.2561C7.7424 26 19 26 19 26C19 26 30.2576 26 33.072 25.2561C33.8423 25.0408 34.5414 24.6283 35.0988 24.0605C35.6561 23.4926 36.052 22.7894 36.2464 22.022C36.7575 19.2206 37.0094 16.3789 36.9991 13.5323C37.0174 10.6426 36.7655 7.75727 36.2464 4.91333V4.91333Z" stroke="#CEB428" stroke-width="2" stroke-linecap="round" stroke-linejoin="round"/>
<path d="M15.3184 18.8201L24.727 13.5322L15.3184 8.24438V18.8201Z" stroke="#CEB428" stroke-width="2" stroke-linecap="round" stroke-linejoin="round"/>
</svg>
